<mxfile host="app.diagrams.net" modified="2023-05-10T19:31:51.422Z" agent="Mozilla/5.0 (Windows NT 10.0; Win64; x64) AppleWebKit/537.36 (KHTML, like Gecko) Chrome/113.0.0.0 Safari/537.36" etag="cFGVvah9sNarzvMV8hNs" version="21.2.9" type="github">
  <diagram name="Page-1" id="ydFlaMjgUBtq0gkMH-1V">
    <mxGraphModel dx="1050" dy="541" grid="1" gridSize="10" guides="1" tooltips="1" connect="1" arrows="1" fold="1" page="1" pageScale="1" pageWidth="850" pageHeight="1100" math="0" shadow="0">
      <root>
        <mxCell id="0" />
        <mxCell id="1" parent="0" />
        <mxCell id="K_Z2879v6IrsRVn8R-hL-1" value="Natural Language Processing Techniques" style="rounded=0;whiteSpace=wrap;html=1;" vertex="1" parent="1">
          <mxGeometry x="250" y="40" width="350" height="60" as="geometry" />
        </mxCell>
        <mxCell id="K_Z2879v6IrsRVn8R-hL-2" value="" style="endArrow=classic;html=1;rounded=0;exitX=0.25;exitY=1;exitDx=0;exitDy=0;" edge="1" parent="1" source="K_Z2879v6IrsRVn8R-hL-1">
          <mxGeometry width="50" height="50" relative="1" as="geometry">
            <mxPoint x="320" y="100" as="sourcePoint" />
            <mxPoint x="230" y="170" as="targetPoint" />
          </mxGeometry>
        </mxCell>
        <mxCell id="K_Z2879v6IrsRVn8R-hL-3" value="" style="endArrow=classic;html=1;rounded=0;" edge="1" parent="1">
          <mxGeometry width="50" height="50" relative="1" as="geometry">
            <mxPoint x="520" y="100" as="sourcePoint" />
            <mxPoint x="610" y="170" as="targetPoint" />
          </mxGeometry>
        </mxCell>
        <mxCell id="K_Z2879v6IrsRVn8R-hL-4" value="" style="endArrow=classic;html=1;rounded=0;" edge="1" parent="1">
          <mxGeometry width="50" height="50" relative="1" as="geometry">
            <mxPoint x="430" y="100" as="sourcePoint" />
            <mxPoint x="430" y="170" as="targetPoint" />
          </mxGeometry>
        </mxCell>
        <mxCell id="K_Z2879v6IrsRVn8R-hL-6" value="Feature Extraction" style="rounded=0;whiteSpace=wrap;html=1;" vertex="1" parent="1">
          <mxGeometry x="60" y="170" width="200" height="60" as="geometry" />
        </mxCell>
        <mxCell id="K_Z2879v6IrsRVn8R-hL-9" value="Part-of-speech Tagging" style="rounded=0;whiteSpace=wrap;html=1;" vertex="1" parent="1">
          <mxGeometry x="330" y="170" width="200" height="60" as="geometry" />
        </mxCell>
        <mxCell id="K_Z2879v6IrsRVn8R-hL-10" value="Sentiment Analysis" style="rounded=0;whiteSpace=wrap;html=1;" vertex="1" parent="1">
          <mxGeometry x="590" y="170" width="200" height="60" as="geometry" />
        </mxCell>
        <mxCell id="K_Z2879v6IrsRVn8R-hL-17" value="" style="edgeStyle=orthogonalEdgeStyle;rounded=0;orthogonalLoop=1;jettySize=auto;html=1;" edge="1" parent="1" source="K_Z2879v6IrsRVn8R-hL-11" target="K_Z2879v6IrsRVn8R-hL-16">
          <mxGeometry relative="1" as="geometry" />
        </mxCell>
        <mxCell id="K_Z2879v6IrsRVn8R-hL-11" value=" Text Data Analysis" style="rounded=0;whiteSpace=wrap;html=1;" vertex="1" parent="1">
          <mxGeometry x="255" y="310" width="350" height="60" as="geometry" />
        </mxCell>
        <mxCell id="K_Z2879v6IrsRVn8R-hL-12" value="" style="endArrow=classic;html=1;rounded=0;entryX=0.909;entryY=-0.017;entryDx=0;entryDy=0;entryPerimeter=0;" edge="1" parent="1" target="K_Z2879v6IrsRVn8R-hL-11">
          <mxGeometry width="50" height="50" relative="1" as="geometry">
            <mxPoint x="680" y="230" as="sourcePoint" />
            <mxPoint x="770" y="300" as="targetPoint" />
          </mxGeometry>
        </mxCell>
        <mxCell id="K_Z2879v6IrsRVn8R-hL-13" value="" style="endArrow=classic;html=1;rounded=0;entryX=0.532;entryY=0.01;entryDx=0;entryDy=0;entryPerimeter=0;exitX=0.556;exitY=1.037;exitDx=0;exitDy=0;exitPerimeter=0;" edge="1" parent="1" source="K_Z2879v6IrsRVn8R-hL-9" target="K_Z2879v6IrsRVn8R-hL-11">
          <mxGeometry width="50" height="50" relative="1" as="geometry">
            <mxPoint x="437" y="230" as="sourcePoint" />
            <mxPoint x="330" y="309" as="targetPoint" />
          </mxGeometry>
        </mxCell>
        <mxCell id="K_Z2879v6IrsRVn8R-hL-14" value="" style="endArrow=classic;html=1;rounded=0;entryX=0.123;entryY=-0.017;entryDx=0;entryDy=0;entryPerimeter=0;exitX=0.556;exitY=1.037;exitDx=0;exitDy=0;exitPerimeter=0;" edge="1" parent="1" target="K_Z2879v6IrsRVn8R-hL-11">
          <mxGeometry width="50" height="50" relative="1" as="geometry">
            <mxPoint x="159.5" y="230" as="sourcePoint" />
            <mxPoint x="159.5" y="309" as="targetPoint" />
          </mxGeometry>
        </mxCell>
        <mxCell id="K_Z2879v6IrsRVn8R-hL-19" value="" style="edgeStyle=orthogonalEdgeStyle;rounded=0;orthogonalLoop=1;jettySize=auto;html=1;" edge="1" parent="1" source="K_Z2879v6IrsRVn8R-hL-16" target="K_Z2879v6IrsRVn8R-hL-18">
          <mxGeometry relative="1" as="geometry" />
        </mxCell>
        <mxCell id="K_Z2879v6IrsRVn8R-hL-16" value="Keyword Extraction using Machine Learning Algorithms" style="whiteSpace=wrap;html=1;rounded=0;" vertex="1" parent="1">
          <mxGeometry x="370" y="450" width="320" height="60" as="geometry" />
        </mxCell>
        <mxCell id="K_Z2879v6IrsRVn8R-hL-18" value="Content Analysis using Keyword Extraction and NLTK Techniques" style="rounded=0;whiteSpace=wrap;html=1;" vertex="1" parent="1">
          <mxGeometry x="80" y="590" width="510" height="60" as="geometry" />
        </mxCell>
      </root>
    </mxGraphModel>
  </diagram>
</mxfile>
